<?xml version="1.0" standalone="no"?>
<!DOCTYPE svg PUBLIC "-//W3C//DTD SVG 20010904//EN"
 "http://www.w3.org/TR/2001/REC-SVG-20010904/DTD/svg10.dtd">
<svg version="1.0" xmlns="http://www.w3.org/2000/svg"
 width="165.000000pt" height="165.000000pt" viewBox="0 0 165.000000 165.000000"
 preserveAspectRatio="xMidYMid meet">
<metadata>
Created by potrace 1.16, written by Peter Selinger 2001-2019
</metadata>
<g transform="translate(0.000000,165.000000) scale(0.100000,-0.100000)"
fill="#000000" stroke="none">
<path d="M275 1358 c-3 -7 -4 -251 -3 -543 l3 -530 550 0 550 0 0 540 0 540
-548 3 c-433 2 -549 0 -552 -10z m1065 -533 l0 -505 -515 0 -515 0 0 505 0
505 515 0 515 0 0 -505z"/>
<path d="M535 1226 c-37 -16 -70 -52 -84 -89 -6 -16 -11 -101 -11 -194 0 -139
-3 -169 -16 -184 -15 -17 -15 -19 0 -34 13 -14 16 -42 16 -166 l0 -149 85 0
85 0 0 120 c0 137 -3 134 101 128 l54 -3 3 -122 3 -123 84 0 84 0 3 150 c2
125 6 152 20 166 16 16 16 18 0 30 -15 11 -18 38 -22 201 -6 213 -10 227 -84
263 -36 17 -61 20 -167 20 -81 -1 -134 -5 -154 -14z m233 -279 l3 -118 -78 3
-78 3 -3 104 c-2 69 1 108 9 117 9 11 30 14 78 12 l66 -3 3 -118z"/>
<path d="M1050 1205 c0 -33 2 -35 36 -35 l35 0 -1 -67 c-1 -38 -1 -98 -1 -135
l1 -68 35 0 35 0 1 68 c0 37 0 97 -1 135 l-1 67 35 0 c34 0 36 2 36 35 l0 35
-105 0 -105 0 0 -35z"/>
<path d="M1105 750 c-41 -16 -45 -33 -46 -171 -1 -162 4 -169 106 -169 57 0
66 3 84 26 12 15 21 37 21 50 0 21 -5 24 -35 24 -22 0 -38 -6 -41 -15 -4 -9
-19 -15 -35 -15 l-29 0 0 100 0 100 29 0 c16 0 31 -6 35 -15 3 -9 19 -15 41
-15 38 0 44 15 26 63 -15 39 -102 60 -156 37z"/>
</g>
</svg>
